<?xml version="1.0" encoding="UTF-8"?>
<!-- Generated by Pixelmator Pro 3.7.1 -->
<svg width="400" height="110" viewBox="0 0 400 110" xmlns="http://www.w3.org/2000/svg">
    <path id="path1" fill="#ffffff" fill-rule="evenodd" stroke="none" d="M 375.705078 71.535561 C 372.936127 71.535561 370.769531 71.068085 369.205261 70.13311 C 367.640961 69.198135 366.858856 67.95752 366.858856 66.411224 C 366.858856 64.918869 367.645477 63.696228 369.218719 62.743279 C 370.791992 61.790325 372.954102 61.313858 375.705078 61.313858 C 378.456055 61.313858 380.618134 61.790325 382.191406 62.743279 C 383.764679 63.696228 384.5513 64.918869 384.5513 66.411224 C 384.5513 67.95752 383.764679 69.198135 382.191406 70.13311 C 380.618134 71.068085 378.456055 71.535561 375.705078 71.535561 Z M 375.705078 63.687233 C 374.050873 63.687233 372.715881 63.929962 371.699982 64.415428 C 370.684113 64.900894 370.176178 65.575142 370.176178 66.438194 C 370.176178 67.283264 370.688599 67.944031 371.71347 68.420502 C 372.738342 68.89698 374.068878 69.135216 375.705078 69.135216 C 377.323273 69.135216 378.649323 68.89698 379.683167 68.420502 C 380.717041 67.944031 381.233948 67.283264 381.233948 66.438194 C 381.233948 65.575142 380.721527 64.900894 379.696655 64.415428 C 378.671783 63.929962 377.341278 63.687233 375.705078 63.687233 Z M 386.84375 75.985641 L 377.673889 75.985641 L 377.673889 80.867249 L 374.545349 80.867249 L 374.545349 75.985641 L 364.593353 75.985641 L 364.593353 73.423477 L 386.84375 73.423477 Z M 368.099457 85.155518 C 367.811798 85.155518 367.6185 85.101578 367.519623 84.99369 C 367.420715 84.885811 367.371277 84.688034 367.371277 84.400345 L 367.371277 77.873558 L 370.445892 77.873558 L 370.445892 82.566376 L 384.874939 82.566376 L 384.874939 85.155518 Z"/>
    <path id="path2" fill="#ffffff" fill-rule="evenodd" stroke="none" d="M 340.993683 79.761475 C 340.705994 79.761475 340.512726 79.707535 340.413818 79.599655 C 340.314941 79.491776 340.265503 79.293991 340.265503 79.00631 L 340.265503 63.660263 C 340.265503 63.39056 340.319427 63.197273 340.427307 63.080406 C 340.535187 62.963531 340.732971 62.905098 341.02066 62.905098 L 351.35025 62.905098 L 351.35025 65.46727 L 343.286163 65.46727 L 343.286163 77.145363 L 346.279846 77.145363 C 346.927124 77.145363 347.668823 77.109406 348.504883 77.037483 C 349.340973 76.965561 350.136597 76.884651 350.891754 76.794754 C 351.646912 76.704849 352.312195 76.610458 352.887543 76.511566 C 353.462921 76.412674 353.831512 76.345245 353.993317 76.309288 L 353.993317 78.898422 C 353.795532 78.934387 353.40448 78.997314 352.820129 79.087219 C 352.235779 79.177124 351.53006 79.276009 350.702972 79.383888 C 349.875885 79.491776 348.972382 79.581673 347.992462 79.653595 C 347.012543 79.72551 346.046112 79.761475 345.09317 79.761475 Z M 354.964264 85.587036 L 354.964264 61.475677 L 357.984924 61.475677 L 357.984924 69.728561 L 361.248322 69.728561 L 361.248322 72.452545 L 357.984924 72.452545 L 357.984924 85.587036 Z"/>
    <path id="path3" fill="#ffffff" fill-rule="evenodd" stroke="none" d="M 329.045166 69.297035 L 329.045166 64.739075 L 318.391937 64.739075 L 318.391937 69.297035 Z M 316.099457 62.203873 L 331.310669 62.203873 C 331.580383 62.203873 331.773651 62.262306 331.890533 62.379181 C 332.007385 62.496048 332.065826 62.689335 332.065826 62.959038 L 332.065826 71.104034 C 332.065826 71.391724 332.007385 71.5895 331.890533 71.697388 C 331.773651 71.805267 331.580383 71.859207 331.310669 71.859207 L 316.07251 71.859207 C 315.784821 71.859207 315.591522 71.809761 315.492645 71.710869 C 315.393738 71.611977 315.344299 71.418694 315.344299 71.131012 L 315.344299 62.959038 C 315.344299 62.689335 315.398254 62.496048 315.506134 62.379181 C 315.614014 62.262306 315.811798 62.203873 316.099457 62.203873 Z M 322.22171 85.614006 L 322.22171 77.469009 L 312.593353 77.469009 L 312.593353 74.906837 L 334.84375 74.906837 L 334.84375 77.469009 L 325.323273 77.469009 L 325.323273 85.614006 Z"/>
    <path id="path4" fill="#ffffff" fill-rule="evenodd" stroke="none" d="M 288.993683 79.734505 C 288.705994 79.734505 288.512726 79.680565 288.413818 79.572678 C 288.314941 79.464798 288.265503 79.267021 288.265503 78.97934 L 288.265503 62.446602 L 291.286163 62.446602 L 291.286163 77.091423 L 294.171967 77.091423 C 294.72937 77.091423 295.358643 77.064453 296.059875 77.010513 C 296.761108 76.956573 297.462341 76.884651 298.163574 76.794754 C 298.864777 76.722832 299.548035 76.632935 300.213287 76.525047 C 300.878571 76.417168 301.462921 76.309288 301.96637 76.201408 L 301.96637 78.76358 C 301.570801 78.853477 301.080841 78.952362 300.49649 79.060249 C 299.91214 79.168129 299.269348 79.267021 298.568115 79.356918 C 297.866882 79.446823 297.134216 79.527733 296.370056 79.599655 C 295.605896 79.67157 294.855225 79.707535 294.118042 79.707535 Z M 302.964264 85.614006 L 302.964264 61.448708 L 306.011902 61.448708 L 306.011902 70.294937 L 309.302246 70.294937 L 309.302246 73.045898 L 306.011902 73.045898 L 306.011902 85.614006 Z"/>
    <path id="path5" fill="#ffffff" fill-rule="evenodd" stroke="none" d="M 60.635204 28.143684 L 64.872002 32.283279 L 21.51911 76.627953 L 63.854256 76.627953 L 63.854256 82.544212 L 14.479314 82.544212 L 12.360968 77.507118 L 60.635204 28.143684 Z"/>
    <path id="path6" fill="#ffffff" fill-rule="evenodd" stroke="none" d="M 81.785927 27.246185 L 137.086441 27.246185 L 137.086441 82.546005 L 81.785927 82.546005 Z"/>
    <path id="path7" fill="#ffffff" fill-rule="evenodd" stroke="none" d="M 151.108215 27.246185 L 157.03389 27.246185 L 157.03389 76.627953 L 206.408722 76.627953 L 206.408722 82.544212 L 151.108215 82.544212 L 151.108215 27.246185 Z"/>
    <path id="path8" fill="#ffffff" fill-rule="evenodd" stroke="none" d="M 206.381836 27.288864 L 206.381836 33.138374 L 203.451431 33.138374 L 156.999969 33.138374 L 156.999969 82.513214 L 151.157028 82.513214 L 151.157028 27.288864 L 206.381836 27.288864 Z"/>
    <path id="path9" fill="#ffffff" fill-rule="evenodd" stroke="none" d="M 273.619415 54.900703 C 273.619415 70.171761 261.240021 82.551025 245.969299 82.551025 C 230.698578 82.551025 218.319168 70.171761 218.319168 54.900703 C 218.319168 39.630142 230.698578 27.250877 245.969299 27.250877 C 261.240021 27.250877 273.619415 39.630142 273.619415 54.900703 Z"/>
</svg>
