<?xml version="1.0" encoding="UTF-8"?>
<!-- Generated by Pixelmator Pro 3.7.1 -->
<svg width="400" height="110" viewBox="0 0 400 110" xmlns="http://www.w3.org/2000/svg">
    <path id="path1" fill="#ffffff" fill-rule="evenodd" stroke="none" d="M 92.302818 20.612595 L 97.82692 26.009964 L 41.301712 83.828293 L 96.499939 83.828293 L 96.499939 91.542145 L 32.122952 91.542145 L 29.360968 84.974579 L 92.302818 20.612595 Z"/>
    <path id="path2" fill="#ffffff" fill-rule="evenodd" stroke="none" d="M 119.879959 19.442406 L 191.982941 19.442406 L 191.982941 91.544479 L 119.879959 91.544479 Z"/>
    <path id="path3" fill="#ffffff" fill-rule="evenodd" stroke="none" d="M 210.265076 19.442406 L 217.991211 19.442406 L 217.991211 83.828293 L 282.368042 83.828293 L 282.368042 91.542145 L 210.265076 91.542145 L 210.265076 19.442406 Z"/>
    <path id="path4" fill="#ffffff" fill-rule="evenodd" stroke="none" d="M 282.333008 19.498047 L 282.333008 27.12487 L 278.512238 27.12487 L 217.946976 27.12487 L 217.946976 91.501724 L 210.32872 91.501724 L 210.32872 19.498047 L 282.333008 19.498047 Z"/>
    <path id="path5" fill="#ffffff" fill-rule="evenodd" stroke="none" d="M 370 55.499451 C 370 75.410454 353.859253 91.551025 333.9487 91.551025 C 314.038116 91.551025 297.897369 75.410454 297.897369 55.499451 C 297.897369 35.589088 314.038116 19.448517 333.9487 19.448517 C 353.859253 19.448517 370 35.589088 370 55.499451 Z"/>
</svg>
